<svg xmlns="http://www.w3.org/2000/svg" shape-rendering="geometricPrecision" text-rendering="geometricPrecision" image-rendering="optimizeQuality" fill-rule="evenodd" clip-rule="evenodd" viewBox="0 0 512 512"><path fill="#2394E0" d="M255.997 0C397.367 0 512 114.638 512 255.996c0 141.371-114.639 256.002-256.003 256.002C114.634 512.003 0 397.369 0 255.996 0 114.638 114.634 0 255.997 0z"/><path fill="#1A6CCF" d="M48.992 388.253a239.643 239.643 0 01-32.982-75.942l45.088 21.742.231 13.452c0 4.943-8.438 15.46-11.113 19.454l-1.224 21.294zm277.32-361.19c85.909 28.554 150.369 104.154 162.784 196.255l-8.137-.872c-1.446 6.231-2.774 6.388-2.774 13.888 0 6.619 8.333 11.048 8.333 25.014 0 3.742-8.787 11.225-9.174 12.529l-13.051-15.308v19.452l-1.982-.074-3.517-35.897-7.289 2.296-8.671-26.703-28.561 29.812-.344 21.83-9.323 6.253-9.904-55.991-5.924 4.329-13.418-18.105-20.055.596-7.682-8.78-7.865 2.162-15.465-17.723-2.988 2.032 9.583 24.491 11.119.001v-5.558l5.556.001c4.007 11.077 8.336 4.517 8.336 11.122 0 23.111-28.547 40.104-47.245 44.454.999 4.18.612 8.345 5.553 8.345 10.471 0 5.267-1.833 16.681-2.779-.531 23.613-27.085 51.813-38.423 69.393l5.076 36.208c1.337 7.864-16.328 16.182-22.336 25.038l2.883 13.871-8.137 3.288c-1.426 14.25-15.258 30.058-30.776 30.058l-16.669-.002c0-19.511-13.9-47.358-13.9-61.147 0-11.708 5.554-13.283 5.554-27.787 0-13.4-13.889-32.616-13.889-36.124v-22.233h-11.12c-1.649-6.196-.641-8.334-8.333-8.334h-2.779c-12.141 0-10.09 5.555-22.233 5.555h-11.121c-10.025 0-27.788-32.171-27.788-36.13v-33.347c0-14.393 13.171-30.058 22.234-36.134v-13.889l12.508-12.717 6.947-1.182c14.911 0 13.142-8.333 22.234-8.333l25.016.002v19.452l27.5 11.743 2.593-11.866c12.462 2.921 15.703 8.466 31.057 8.466h5.554c10.546 0 11.112-13.992 11.112-25.009l-22.263 2.2-9.684-21.1-9.631 2.561c1.73 7.55 2.676 4.413 2.676 10.78 0 3.75-3.088 4.168-5.562 5.559l-9.63-24.437-20.703-14.788-2.751 2.701 17.631 18.55c-2.341 6.653-2.618 25.872-12.337 12.412l9.091-4.375-22.66-23.745-13.574 5.308-13.399 12.833c-1.401 10.337-4.219 15.538-15.033 15.538-7.201 0-2.854-1.864-13.901-2.78v-27.787h25.01l-8.105-18.508-3.004 1.833v-5.563l40.611-18.724c-.766-5.83-1.7-2.704-1.7-9.064 0-.379 2.728-5.508 2.779-5.566l10.505 6.522-2.511-11.963-16.207 3.334-3.006-14.542c12.849-6.768 41.124-30.582 50.116-30.582l8.342-.002c8.78 0 32.297 8.664 36.121 13.888l-22.3-2.259 16.547 13.63 1.588-5.814 12.349-3.382.149-7.73h5.566v8.333l31.54-9.183z"/><path fill="#fff" d="M269.009.326c4.883.245 9.73.637 14.536 1.153a2537.182 2537.182 0 012.752 66.419 40.24 40.24 0 0125.358 12.729c31.931-12.774 65.212-22.074 99.182-28.476a258.239 258.239 0 0114.67 12.041c-36.361 6.09-71.995 15.468-106.042 28.871a41.052 41.052 0 011.587 4.873l.023.096a40.128 40.128 0 01-1.325 24.154c23.3 19.851 42.823 41.647 59.184 65.076a352.624 352.624 0 0111.801 18.061l.523-.139c10.77-2.776 21.645-.928 30.509 4.301 8.683 5.127 15.463 13.534 18.35 24.054 22.984-4.745 45.903-10.452 68.863-16.953a255.63 255.63 0 011.811 14.499c-23.126 6.502-46.226 12.203-69.403 16.941a40.22 40.22 0 01-16.631 28.899c11.019 30.544 18.844 62.681 24.391 95.945a500.24 500.24 0 0042.927-17.707 254.508 254.508 0 01-9.537 20.125 512.43 512.43 0 01-31.112 12.135 825.845 825.845 0 013.742 29.383 256.918 256.918 0 01-13.021 14.904c-1.268-13.347-2.801-26.554-4.659-39.593-44.617 14.304-89.149 21.732-132.609 23.573a40.22 40.22 0 01-3.228 6.884c-5.223 8.854-13.863 15.727-24.676 18.512a40.453 40.453 0 01-10.047 1.288 2099.847 2099.847 0 01-10.7 69.623L256 512c-4.827 0-9.622-.145-14.384-.409a2096.002 2096.002 0 0011.068-71.82 40.493 40.493 0 01-6.216-2.985c-8.536-5.037-15.228-13.249-18.195-23.515-57.009-5.983-110.92-20.938-159.22-41.61-4.577 14.328-8.756 29.251-12.505 44.795a257.891 257.891 0 01-11.155-14.927 644.58 644.58 0 0110.374-35.755 541.037 541.037 0 01-39.643-20.215 254.562 254.562 0 01-6.732-20.669c16.029 9.706 33.077 18.8 50.998 27.095 11.448-32.794 25.04-62.415 40.466-89.125a40.349 40.349 0 01-6.983-14.433 40.209 40.209 0 01-.811-16.228c-28.232-8.805-57.121-19.628-86.796-32.672a253.8 253.8 0 013.631-14.221c30.106 13.328 59.366 24.329 87.925 33.22l.351-.606c5.223-8.854 13.867-15.727 24.676-18.516a40.151 40.151 0 0121.963.519 409.241 409.241 0 0131.127-33.145c20.781-19.788 43.071-36.809 66.537-51.362a40.12 40.12 0 013.799-25.993c-36.086-19.7-78.633-36.137-128.798-48.723a256.047 256.047 0 0117.507-10.324C181.296 43 221.073 58.991 255.247 77.878c4.607-4.097 10.234-7.2 16.624-8.875A2517.443 2517.443 0 00269.009.326zM411.62 283.098l-.315.084c-10.771 2.776-21.644.929-30.509-4.3a40.146 40.146 0 01-16.563-18.912c-26.485 2.721-53.216 3.983-80.351 3.552a2237.518 2237.518 0 01-7.595 99.365 40.327 40.327 0 0111.15 4.498c8.855 5.224 15.728 13.866 18.518 24.677a40.476 40.476 0 011.271 9.043c41.988-2.034 84.985-9.457 128.046-23.485-5.355-32.832-12.934-64.5-23.652-94.522zm-50.587-37.321a40.163 40.163 0 015.549-22.078 40.142 40.142 0 0111.056-12.137 334.543 334.543 0 00-10.529-16.041c-15.237-21.819-33.371-42.178-54.934-60.802-5.062 5.692-11.808 10.026-19.739 12.149l-.628.162c-1.519.381-3.04.67-4.556.871a2342.537 2342.537 0 01-2.635 101.194c25.778.387 51.206-.789 76.416-3.318zm-88.227-98.594a40.312 40.312 0 01-11.24-4.519 40.172 40.172 0 01-13.781-13.524c-21.809 13.727-42.537 29.675-61.89 48.104a394.223 394.223 0 00-27.999 29.578c6.639 5.264 11.69 12.681 13.978 21.562a40.506 40.506 0 011.275 9.152c32.763 6.318 64.706 9.909 96.068 11.14l.955.037a2328.952 2328.952 0 002.634-101.53zM170.87 251.816a40.303 40.303 0 01-3.296 7.073c-5.227 8.853-13.866 15.73-24.676 18.516-10.771 2.777-21.645.929-30.509-4.3l-.552-.333c-14.533 25.561-27.362 53.858-38.206 85.132 46.477 20.015 98.334 34.596 153.186 40.666a40.252 40.252 0 015.437-16.969c5.227-8.858 13.867-15.731 24.676-18.516a40.696 40.696 0 014.908-.947 2215.652 2215.652 0 007.598-99.006l-.784-.03c-31.947-1.254-64.462-4.894-97.782-11.286z"/><path fill="#EF4136" d="M274.878 80.142c15.367-3.962 31.035 5.282 34.995 20.649 3.96 15.365-5.288 31.029-20.649 34.993-15.365 3.962-31.035-5.283-34.995-20.65-3.96-15.365 5.285-31.032 20.649-34.992zm-15.096 294.122c15.366-3.96 31.03 5.284 34.994 20.649 3.957 15.367-5.284 31.035-20.652 34.995-15.365 3.96-31.031-5.285-34.992-20.65-3.96-15.364 5.285-31.034 20.65-34.994zM394.11 216.363c15.365-3.96 31.033 5.285 34.995 20.649 3.96 15.365-5.285 31.031-20.652 34.992-15.364 3.96-31.032-5.285-34.992-20.65-3.961-15.366 5.284-31.031 20.649-34.991zm-268.41-5.78c15.367-3.959 31.035 5.286 34.995 20.653 3.96 15.361-5.284 31.029-20.649 34.991-15.365 3.96-31.033-5.285-34.995-20.651-3.96-15.365 5.285-31.029 20.649-34.993z"/></svg>